<?xml version="1.0" encoding="UTF-8"?>
<svg width="32" height="32" viewBox="0 0 32 32" fill="none" xmlns="http://www.w3.org/2000/svg">
  <rect width="32" height="32" rx="8" fill="#42B983"/>
  <path d="M22 12H10C9.44772 12 9 12.4477 9 13V19C9 19.5523 9.44772 20 10 20H22C22.5523 20 23 19.5523 23 19V13C23 12.4477 22.5523 12 22 12Z" stroke="white" stroke-width="2" stroke-linecap="round" stroke-linejoin="round"/>
  <path d="M16 17C16.5523 17 17 16.5523 17 16C17 15.4477 16.5523 15 16 15C15.4477 15 15 15.4477 15 16C15 16.5523 15.4477 17 16 17Z" fill="white"/>
</svg>